<svg xmlns="http://www.w3.org/2000/svg" width="90.532" height="90.532" viewBox="0 0 90.532 90.532">
  <g id="Group_7" data-name="Group 7" transform="translate(0 0)">
    <path id="Path_4" data-name="Path 4" d="M5.3,45.266A39.958,39.958,0,0,1,68.11,12.481H62.97a2.652,2.652,0,1,0,0,5.3H75.4a2.652,2.652,0,0,0,2.652-2.652V2.7a2.652,2.652,0,0,0-5.3,0v6.6A45.257,45.257,0,0,0,6.07,67.9a2.652,2.652,0,0,0,4.591-2.657A39.936,39.936,0,0,1,5.3,45.266Z" transform="translate(0 0)" fill="#fff"/>
    <path id="Path_5" data-name="Path 5" d="M142.568,121.837a2.652,2.652,0,0,0-4.592,2.657A39.955,39.955,0,0,1,80.53,177.254h5.138a2.652,2.652,0,1,0,0-5.3H73.239a2.652,2.652,0,0,0-2.652,2.652v12.429a2.652,2.652,0,1,0,5.3,0v-6.609a45.254,45.254,0,0,0,66.676-58.585Z" transform="translate(-58.106 -99.203)" fill="#fff"/>
  </g>
</svg>
