<svg id="ImageIcon" xmlns="http://www.w3.org/2000/svg" width="45.609" height="45.609" viewBox="0 0 45.609 45.609">
  <g id="Group_2" data-name="Group 2">
    <g id="Group_1" data-name="Group 1">
      <path id="Path_1" data-name="Path 1" d="M39.781,0H5.828A5.835,5.835,0,0,0,0,5.828V39.781a5.835,5.835,0,0,0,5.828,5.828H39.781a5.835,5.835,0,0,0,5.828-5.828V5.828A5.835,5.835,0,0,0,39.781,0Zm3.142,39.781a3.145,3.145,0,0,1-3.142,3.142H5.828a3.145,3.145,0,0,1-3.142-3.142v-4.9l8.842-7.523a.868.868,0,0,1,1.119-.007l5.538,4.6a1.343,1.343,0,0,0,1.809-.084l13.16-13.18a.869.869,0,0,1,1.29.066l8.478,10.439V39.781Zm0-14.851L36.53,17.059a3.556,3.556,0,0,0-5.277-.271L18.959,29.1l-4.6-3.816a3.55,3.55,0,0,0-4.576.027l-7.1,6.042V5.828A3.145,3.145,0,0,1,5.828,2.686H39.781a3.145,3.145,0,0,1,3.142,3.142Z" fill="#fff"/>
    </g>
  </g>
  <g id="Group_4" data-name="Group 4" transform="translate(7.88 5.612)">
    <g id="Group_3" data-name="Group 3">
      <path id="Path_2" data-name="Path 2" d="M94.938,63a6.477,6.477,0,1,0,6.477,6.477A6.485,6.485,0,0,0,94.938,63Zm0,10.268a3.791,3.791,0,1,1,3.791-3.791A3.8,3.8,0,0,1,94.938,73.263Z" transform="translate(-88.461 -62.995)" fill="#fff"/>
    </g>
  </g>
</svg>
