<svg xmlns="http://www.w3.org/2000/svg" width="47.361" height="47.742" viewBox="0 0 47.361 47.742">
  <g id="Group_6" data-name="Group 6" transform="translate(0)">
    <path id="Path_6" data-name="Path 6" d="M169.347,139.542a2.653,2.653,0,0,0-.265-2.013l-5.3-9.188a2.652,2.652,0,0,0-3.623-.971l-3.019,1.743a19.23,19.23,0,0,0-3.421-1.982v-3.48A2.652,2.652,0,0,0,151.061,121H140.452a2.652,2.652,0,0,0-2.652,2.652v3.479a19.245,19.245,0,0,0-3.421,1.982l-3.019-1.743a2.652,2.652,0,0,0-3.623.971l-5.3,9.188a2.652,2.652,0,0,0,.971,3.623l3,1.735a19.612,19.612,0,0,0,0,3.967l-3,1.735a2.652,2.652,0,0,0-.971,3.623l5.3,9.188a2.652,2.652,0,0,0,3.623.971l3.019-1.743a19.215,19.215,0,0,0,3.421,1.982v3.48a2.652,2.652,0,0,0,2.652,2.652h10.609a2.652,2.652,0,0,0,2.652-2.652V162.61a19.235,19.235,0,0,0,3.421-1.982l3.019,1.743a2.652,2.652,0,0,0,3.623-.971l5.3-9.188a2.652,2.652,0,0,0-.971-3.623l-3-1.735a19.609,19.609,0,0,0,0-3.967l3-1.735A2.653,2.653,0,0,0,169.347,139.542Zm-9.731,2.483a14.29,14.29,0,0,1,0,5.692,2.652,2.652,0,0,0,1.272,2.828l2.273,1.312-2.652,4.594-2.292-1.323a2.653,2.653,0,0,0-3.087.313,14.039,14.039,0,0,1-4.907,2.843,2.652,2.652,0,0,0-1.815,2.516v2.637h-5.3V160.8a2.652,2.652,0,0,0-1.815-2.516,14.039,14.039,0,0,1-4.907-2.843,2.652,2.652,0,0,0-3.087-.313L131,156.451l-2.652-4.594,2.273-1.312a2.652,2.652,0,0,0,1.272-2.828,14.3,14.3,0,0,1,0-5.692,2.652,2.652,0,0,0-1.272-2.828l-2.273-1.312L131,133.291l2.292,1.323a2.652,2.652,0,0,0,3.087-.313,14.037,14.037,0,0,1,4.907-2.843,2.653,2.653,0,0,0,1.814-2.517V126.3h5.3v2.637a2.653,2.653,0,0,0,1.814,2.517,14.038,14.038,0,0,1,4.907,2.843,2.652,2.652,0,0,0,3.087.313l2.292-1.323,2.652,4.594-2.273,1.312A2.652,2.652,0,0,0,159.616,142.025Z" transform="translate(-122.076 -121)" fill="#fff"/>
    <path id="Path_7" data-name="Path 7" d="M210.725,201a9.725,9.725,0,1,0,9.725,9.725A9.736,9.736,0,0,0,210.725,201Zm0,14.146a4.421,4.421,0,1,1,4.421-4.421A4.426,4.426,0,0,1,210.725,215.146Z" transform="translate(-187.045 -186.854)" fill="#fff"/>
  </g>
</svg>
