<svg xmlns="http://www.w3.org/2000/svg" width="148.099" height="148.105" viewBox="0 0 148.099 148.105">
  <path id="Path_3" data-name="Path 3" d="M139.55,58.241l-12.77-1.534A57.021,57.021,0,0,0,121.1,42.964l7.939-10.091a4.141,4.141,0,0,0-.326-5.346L115.555,14.361a4.153,4.153,0,0,0-5.346-.326L100.1,21.986a56.237,56.237,0,0,0-13.715-5.667L84.858,3.549A4.147,4.147,0,0,0,80.851,0H62.237a4.136,4.136,0,0,0-4,3.549L56.7,16.319a56.693,56.693,0,0,0-13.726,5.672l-10.1-7.939a4.146,4.146,0,0,0-5.34.321L14.367,27.544a4.152,4.152,0,0,0-.309,5.346l7.933,10.1a56.547,56.547,0,0,0-5.672,13.738L3.555,58.253A4.143,4.143,0,0,0,0,62.26V80.874a4.146,4.146,0,0,0,3.555,4l12.77,1.534A56.9,56.9,0,0,0,22,100.124l-7.933,10.109a4.154,4.154,0,0,0,.326,5.346l13.142,13.171a4.154,4.154,0,0,0,5.34.326l10.109-7.956a56.332,56.332,0,0,0,13.726,5.672l1.534,12.764a4.136,4.136,0,0,0,4,3.549H80.857a4.127,4.127,0,0,0,4-3.549l1.534-12.764a56.827,56.827,0,0,0,13.726-5.672l10.109,7.939a4.146,4.146,0,0,0,5.34-.321l13.159-13.171a4.146,4.146,0,0,0,.321-5.352l-7.945-10.1A56.628,56.628,0,0,0,126.78,86.4l12.764-1.534a4.132,4.132,0,0,0,3.555-4V62.248A4.122,4.122,0,0,0,139.55,58.241Zm-68,49.083A35.775,35.775,0,1,1,107.33,71.55,35.773,35.773,0,0,1,71.555,107.324Z" transform="translate(2.5 2.5)" fill="none" stroke="#fff" stroke-width="5"/>
</svg>
